<?xml version="1.0" encoding="UTF-8"?>
<svg width="135px" height="153px" viewBox="0 0 135 153" version="1.1" xmlns="http://www.w3.org/2000/svg" xmlns:xlink="http://www.w3.org/1999/xlink">
    <!-- Generator: Sketch 54.1 (76490) - https://sketchapp.com -->
    <title>gym steps</title>
    <desc>Created with Sketch.</desc>
    <defs>
        <linearGradient x1="100%" y1="4.07956038%" x2="0%" y2="96.8553421%" id="linearGradient-1">
            <stop stop-color="#FF5964" offset="0%"></stop>
            <stop stop-color="#FF5964" offset="50.0270954%"></stop>
            <stop stop-color="#FAD866" offset="100%"></stop>
        </linearGradient>
    </defs>
    <g id="XHQ" stroke="none" stroke-width="1" fill="none" fill-rule="evenodd">
        <g id="XHQ--Icons---OPS---V1" transform="translate(-1041.000000, -1168.000000)">
            <g id="gym-steps" transform="translate(1031.000000, 1167.000000)">
                <g id="picnic">
                    <g id="badge" fill-rule="nonzero">
                        <path d="M84.5,18.4641016 L124.894537,41.7858984 C128.60735,43.9294919 130.894537,47.8910162 130.894537,52.1782032 L130.894537,98.8217968 C130.894537,103.108984 128.60735,107.070508 124.894537,109.214102 L84.5,132.535898 C80.7871871,134.679492 76.2128129,134.679492 72.5,132.535898 L32.1054631,109.214102 C28.3926501,107.070508 26.1054631,103.108984 26.1054631,98.8217968 L26.1054631,52.1782032 C26.1054631,47.8910162 28.3926501,43.9294919 32.1054631,41.7858984 L72.5,18.4641016 C76.2128129,16.3205081 80.7871871,16.3205081 84.5,18.4641016 Z" id="Polygon-Copy" fill="#FFFFFF" opacity="0"></path>
                        <g id="bg-copy-9">
                            <path d="M83.5,3.46410162 L138.616969,35.2858984 C142.329782,37.4294919 144.616969,41.3910162 144.616969,45.6782032 L144.616969,109.321797 C144.616969,113.608984 142.329782,117.570508 138.616969,119.714102 L83.5,151.535898 C79.7871871,153.679492 75.2128129,153.679492 71.5,151.535898 L16.3830312,119.714102 C12.6702183,117.570508 10.3830312,113.608984 10.3830312,109.321797 L10.3830312,45.6782032 C10.3830312,41.3910162 12.6702183,37.4294919 16.3830312,35.2858984 L71.5,3.46410162 C75.2128129,1.32050808 79.7871871,1.32050808 83.5,3.46410162 Z" id="Polygon" fill="url(#linearGradient-1)"></path>
                            <path d="M83.5,20.4641016 L123.894537,43.7858984 C127.60735,45.9294919 129.894537,49.8910162 129.894537,54.1782032 L129.894537,100.821797 C129.894537,105.108984 127.60735,109.070508 123.894537,111.214102 L83.5,134.535898 C79.7871871,136.679492 75.2128129,136.679492 71.5,134.535898 L31.1054631,111.214102 C27.3926501,109.070508 25.1054631,105.108984 25.1054631,100.821797 L25.1054631,54.1782032 C25.1054631,49.8910162 27.3926501,45.9294919 31.1054631,43.7858984 L71.5,20.4641016 C75.2128129,18.3205081 79.7871871,18.3205081 83.5,20.4641016 Z" id="Polygon-Copy" fill="#FFFFFF" opacity="0.200000003"></path>
                        </g>
                    </g>
                    <g id="gym-class" transform="translate(64.000000, 55.000000)">
                        <circle id="Oval" fill="#FFFFFF" cx="12" cy="5" r="5"></circle>
                        <path d="M25.98,39.8 C25.8849463,39.3343337 25.4752686,38.999903 25,39 L15,39 C14.5247314,38.999903 14.1150537,39.3343337 14.02,39.8 L13.02,44.8 C12.9599355,45.094255 13.0352993,45.399925 13.2252638,45.6325346 C13.4152283,45.8651442 13.6996773,46.0000613 14,46 L26,46 C26.3003227,46.0000613 26.5847717,45.8651442 26.7747362,45.6325346 C26.9647007,45.399925 27.0400645,45.094255 26.98,44.8 L25.98,39.8 Z" id="Path" fill="#5A5665"></path>
                        <path d="M12,32 C10.4352528,31.9987415 8.91656551,31.4703186 7.689,30.5 L7.111,34.54 L2.466,41.04 C1.9294097,41.766032 1.82594424,42.7249673 2.19531555,43.5487491 C2.56468685,44.372531 3.34950747,44.9331722 4.24854898,45.0154887 C5.14759049,45.0978051 6.02117314,44.6890076 6.534,43.946 L11.534,36.946 C11.7673515,36.6201498 11.9186325,36.2428047 11.975,35.846 L12.529,31.965 C12.354,31.986 12.179,32 12,32 Z" id="Path" fill="#E1E7E9"></path>
                        <path d="M28.562,14.751 C27.8721852,13.8883515 26.6136752,13.7482186 25.751,14.438 L21.881,17.538 C21.881,17.538 14.946,12.978 14.927,12.967 C13.4937754,11.9090967 11.6011248,11.7072139 9.977,12.439 L1.215,16.165 C0.479618123,16.4788185 0.00180143991,17.2004593 0,18 L0,25 C0,26.1045695 0.8954305,27 2,27 C3.1045695,27 4,26.1045695 4,25 L4,19.32 L7,18.039 L7,25 C7.10884402,27.7150616 9.28493843,29.891156 12,30 L17.293,30 L18.02,35.811 C18.1767734,37.0614471 19.2397636,37.9997074 20.5,38 C20.6049927,38.0002492 20.7098874,37.993568 20.814,37.98 C22.1834959,37.8079404 23.1544287,36.5585751 22.983,35.189 L21.983,27.189 C21.8260849,25.9374183 20.7613793,24.9987792 19.5,25 L17,25 L17,19.124 L20.906,21.675 C21.6294239,22.1473676 22.5743914,22.101793 23.249,21.562 L28.249,17.562 C29.1116485,16.8721852 29.2517814,15.6136752 28.562,14.751 Z" id="Path" fill="#FFFFFF"></path>
                    </g>
                </g>
            </g>
        </g>
    </g>
</svg>
