<?xml version="1.0" encoding="UTF-8"?>
<svg width="135px" height="153px" viewBox="0 0 135 153" version="1.1" xmlns="http://www.w3.org/2000/svg" xmlns:xlink="http://www.w3.org/1999/xlink">
    <!-- Generator: Sketch 54.1 (76490) - https://sketchapp.com -->
    <title>bike</title>
    <desc>Created with Sketch.</desc>
    <defs>
        <linearGradient x1="100%" y1="4.07956038%" x2="0%" y2="96.8553421%" id="linearGradient-1">
            <stop stop-color="#FF5964" offset="0%"></stop>
            <stop stop-color="#FF5964" offset="50.0270954%"></stop>
            <stop stop-color="#FAD866" offset="100%"></stop>
        </linearGradient>
    </defs>
    <g id="XHQ" stroke="none" stroke-width="1" fill="none" fill-rule="evenodd">
        <g id="XHQ--Icons---OPS---V1" transform="translate(-653.000000, -2462.000000)">
            <g id="bike" transform="translate(643.000000, 2461.000000)">
                <g id="Group-4">
                    <g id="Group-12">
                        <g id="badge" fill-rule="nonzero">
                            <path d="M84.5,20.4641016 L124.894537,43.7858984 C128.60735,45.9294919 130.894537,49.8910162 130.894537,54.1782032 L130.894537,100.821797 C130.894537,105.108984 128.60735,109.070508 124.894537,111.214102 L84.5,134.535898 C80.7871871,136.679492 76.2128129,136.679492 72.5,134.535898 L32.1054631,111.214102 C28.3926501,109.070508 26.1054631,105.108984 26.1054631,100.821797 L26.1054631,54.1782032 C26.1054631,49.8910162 28.3926501,45.9294919 32.1054631,43.7858984 L72.5,20.4641016 C76.2128129,18.3205081 80.7871871,18.3205081 84.5,20.4641016 Z" id="Polygon-Copy" fill="#FFFFFF" opacity="0"></path>
                            <g id="bg-copy-23">
                                <path d="M83.5,3.46410162 L138.616969,35.2858984 C142.329782,37.4294919 144.616969,41.3910162 144.616969,45.6782032 L144.616969,109.321797 C144.616969,113.608984 142.329782,117.570508 138.616969,119.714102 L83.5,151.535898 C79.7871871,153.679492 75.2128129,153.679492 71.5,151.535898 L16.3830312,119.714102 C12.6702183,117.570508 10.3830312,113.608984 10.3830312,109.321797 L10.3830312,45.6782032 C10.3830312,41.3910162 12.6702183,37.4294919 16.3830312,35.2858984 L71.5,3.46410162 C75.2128129,1.32050808 79.7871871,1.32050808 83.5,3.46410162 Z" id="Polygon" fill="url(#linearGradient-1)"></path>
                                <path d="M83.5,20.4641016 L123.894537,43.7858984 C127.60735,45.9294919 129.894537,49.8910162 129.894537,54.1782032 L129.894537,100.821797 C129.894537,105.108984 127.60735,109.070508 123.894537,111.214102 L83.5,134.535898 C79.7871871,136.679492 75.2128129,136.679492 71.5,134.535898 L31.1054631,111.214102 C27.3926501,109.070508 25.1054631,105.108984 25.1054631,100.821797 L25.1054631,54.1782032 C25.1054631,49.8910162 27.3926501,45.9294919 31.1054631,43.7858984 L71.5,20.4641016 C75.2128129,18.3205081 79.7871871,18.3205081 83.5,20.4641016 Z" id="Polygon-Copy" fill="#FFFFFF" opacity="0.200000003"></path>
                            </g>
                        </g>
                        <g id="bike" transform="translate(53.000000, 61.000000)" stroke-width="2.5">
                            <ellipse id="Oval" stroke="#5A5665" cx="40.5" cy="24.2876585" rx="10.5" ry="10.6521739"></ellipse>
                            <path d="M46.2223091,27.4180696 C46.7183891,26.4867362 47,25.4205608 47,24.2876585 C47,20.6457808 44.0898509,17.6934556 40.5,17.6934556 C39.1712165,17.6934556 37.9355596,18.0979568 36.9061458,18.7922035" id="Oval" stroke="#FFFFFF" opacity="0.5" stroke-linecap="round"></path>
                            <ellipse id="Oval" stroke="#5A5665" cx="10.5" cy="24.2876585" rx="10.5" ry="10.6521739"></ellipse>
                            <path d="M20.2221169,8.38292206 L18.1073298,4.09648056 C18.0231121,3.92578051 17.8492776,3.81770467 17.6589328,3.81770467 L12.7221169,3.81770467 C11.6175474,3.81770467 10.7221169,4.71313517 10.7221169,5.81770467 L10.7221169,6.38292206 C10.7221169,7.48749156 11.6175474,8.38292206 12.7221169,8.38292206 L20.2221169,8.38292206 Z" id="Path-30" stroke="#FFFFFF"></path>
                            <path d="M20.6177304,9.16943812 L27.8576084,23.5629821 C27.9816937,23.8096751 27.8823005,24.1102504 27.6356075,24.2343357 C27.5659019,24.2693972 27.488958,24.2876585 27.4109312,24.2876585 L11.0070208,24.2876585 C10.7308784,24.2876585 10.5070208,24.0638008 10.5070208,23.7876585 C10.5070208,23.6925286 10.5341591,23.5993728 10.5852498,23.5191268 L19.7492822,9.12558276 C19.8975881,8.8926451 20.2066472,8.82403754 20.4395848,8.9723435 C20.5156537,9.0207748 20.5772086,9.08887719 20.6177304,9.16943812 Z" id="Path-31" stroke="#FFFFFF"></path>
                            <path d="M20.2221169,8.38292206 L34.631455,8.38292206 L31.3740803,0.695064774 C31.266349,0.440803928 31.3851346,0.147351312 31.6393955,0.0396200115 C31.7011046,0.0134736095 31.7674405,-1.7795644e-13 31.8344603,-1.77968751e-13 L39.2928128,-1.79634085e-13 C40.2133609,-1.79803187e-13 40.9596126,0.746251703 40.9596126,1.66679983 C40.9596126,1.74780616 40.9537072,1.82870472 40.9419435,1.90885233 L40.9115653,2.11582261 C40.7611207,3.14081804 39.9940826,3.96683337 38.9830171,4.19265587" id="Path-32" stroke="#FFFFFF" stroke-linecap="round"></path>
                            <path d="M33.9995877,6.91171328 L41.3034108,23.8488605" id="Path-33" stroke="#FFFFFF" stroke-linecap="round"></path>
                        </g>
                    </g>
                </g>
            </g>
        </g>
    </g>
</svg>
