<?xml version="1.0" encoding="UTF-8"?>
<svg width="135px" height="153px" viewBox="0 0 135 153" version="1.1" xmlns="http://www.w3.org/2000/svg" xmlns:xlink="http://www.w3.org/1999/xlink">
    <!-- Generator: Sketch 54.1 (76490) - https://sketchapp.com -->
    <title>home with a view</title>
    <desc>Created with Sketch.</desc>
    <defs>
        <linearGradient x1="100%" y1="4.07956038%" x2="0%" y2="96.8553421%" id="linearGradient-1">
            <stop stop-color="#FF5964" offset="0%"></stop>
            <stop stop-color="#FF5964" offset="50.0270954%"></stop>
            <stop stop-color="#FAD866" offset="100%"></stop>
        </linearGradient>
    </defs>
    <g id="XHQ" stroke="none" stroke-width="1" fill="none" fill-rule="evenodd">
        <g id="XHQ--Icons---OPS---V1" transform="translate(-653.000000, -1494.000000)">
            <g id="home-with-a-view" transform="translate(643.000000, 1493.000000)">
                <g id="badge" fill-rule="nonzero">
                    <path d="M84.5,16.4641016 L124.894537,39.7858984 C128.60735,41.9294919 130.894537,45.8910162 130.894537,50.1782032 L130.894537,96.8217968 C130.894537,101.108984 128.60735,105.070508 124.894537,107.214102 L84.5,130.535898 C80.7871871,132.679492 76.2128129,132.679492 72.5,130.535898 L32.1054631,107.214102 C28.3926501,105.070508 26.1054631,101.108984 26.1054631,96.8217968 L26.1054631,50.1782032 C26.1054631,45.8910162 28.3926501,41.9294919 32.1054631,39.7858984 L72.5,16.4641016 C76.2128129,14.3205081 80.7871871,14.3205081 84.5,16.4641016 Z" id="Polygon-Copy" fill="#FFFFFF" opacity="0"></path>
                    <g id="bg-copy-14">
                        <path d="M83.5,3.46410162 L138.616969,35.2858984 C142.329782,37.4294919 144.616969,41.3910162 144.616969,45.6782032 L144.616969,109.321797 C144.616969,113.608984 142.329782,117.570508 138.616969,119.714102 L83.5,151.535898 C79.7871871,153.679492 75.2128129,153.679492 71.5,151.535898 L16.3830312,119.714102 C12.6702183,117.570508 10.3830312,113.608984 10.3830312,109.321797 L10.3830312,45.6782032 C10.3830312,41.3910162 12.6702183,37.4294919 16.3830312,35.2858984 L71.5,3.46410162 C75.2128129,1.32050808 79.7871871,1.32050808 83.5,3.46410162 Z" id="Polygon" fill="url(#linearGradient-1)"></path>
                        <path d="M83.5,20.4641016 L123.894537,43.7858984 C127.60735,45.9294919 129.894537,49.8910162 129.894537,54.1782032 L129.894537,100.821797 C129.894537,105.108984 127.60735,109.070508 123.894537,111.214102 L83.5,134.535898 C79.7871871,136.679492 75.2128129,136.679492 71.5,134.535898 L31.1054631,111.214102 C27.3926501,109.070508 25.1054631,105.108984 25.1054631,100.821797 L25.1054631,54.1782032 C25.1054631,49.8910162 27.3926501,45.9294919 31.1054631,43.7858984 L71.5,20.4641016 C75.2128129,18.3205081 79.7871871,18.3205081 83.5,20.4641016 Z" id="Polygon-Copy" fill="#FFFFFF" opacity="0.200000003"></path>
                    </g>
                </g>
                <g transform="translate(52.000000, 51.000000)">
                    <polygon id="Rectangle" fill="#E1E7E9" transform="translate(30.293139, 8.112967) rotate(21.000000) translate(-30.293139, -8.112967) " points="29.7162562 2.45751936 30.9188295 2.45238169 30.8700216 13.7684146 29.6674483 13.7735523"></polygon>
                    <polygon id="Rectangle" fill="#FF5964" transform="translate(36.453447, 4.459459) rotate(20.000000) translate(-36.453447, -4.459459) " points="31.3528679 1.8007175 41.5762353 1.75876653 38.3272393 4.45177047 41.554026 7.11820142 31.3306585 7.16015239"></polygon>
                    <path d="M28.4150314,11.0760289 L50.0943048,39.7753628 C50.8932405,40.8330054 50.6835171,42.3380595 49.6258745,43.1369953 C49.2092631,43.4517006 48.7013889,43.6219639 48.1792734,43.6219639 L4.82072661,43.6219639 C3.49524321,43.6219639 2.42072661,42.5474473 2.42072661,41.2219639 C2.42072661,40.6998484 2.59098989,40.1919742 2.90569523,39.7753628 L24.5849686,11.0760289 C25.3839044,10.0183863 26.8889585,9.80866289 27.9466011,10.6075986 C28.1236472,10.741338 28.281292,10.8989828 28.4150314,11.0760289 Z" id="Triangle" fill="#FFFFFF"></path>
                    <path d="M28.4206165,11.0886085 L36.2226811,21.4381608 C34.0957365,23.3155228 32.3431449,24.2542037 30.9649065,24.2542037 C28.8975487,24.2542037 28.022919,22.1323673 26.5,22.1323673 C24.977081,22.1323673 24.0493178,24.8079272 21.6953871,24.2542037 C20.1261,23.8850548 17.5113611,24.2645993 13.8511703,25.3928375 L24.5847082,11.0926138 C25.3803953,10.032525 26.8847989,9.81818508 27.9448877,10.6138722 C28.1249457,10.7490211 28.2850918,10.9088331 28.4206165,11.0886085 Z" id="Triangle" fill="#5A5665"></path>
                </g>
            </g>
        </g>
    </g>
</svg>
