<?xml version="1.0" encoding="UTF-8"?>
<svg width="135px" height="153px" viewBox="0 0 135 153" version="1.1" xmlns="http://www.w3.org/2000/svg" xmlns:xlink="http://www.w3.org/1999/xlink">
    <!-- Generator: Sketch 54.1 (76490) - https://sketchapp.com -->
    <title>contender</title>
    <desc>Created with Sketch.</desc>
    <defs>
        <linearGradient x1="100%" y1="4.07956038%" x2="0%" y2="96.8553421%" id="linearGradient-1">
            <stop stop-color="#FF5964" offset="0%"></stop>
            <stop stop-color="#FF5964" offset="50.0270954%"></stop>
            <stop stop-color="#FAD866" offset="100%"></stop>
        </linearGradient>
    </defs>
    <g id="XHQ" stroke="none" stroke-width="1" fill="none" fill-rule="evenodd">
        <g id="XHQ--Icons---OPS---V1" transform="translate(-653.000000, -2786.000000)">
            <g id="contender" transform="translate(643.000000, 2785.000000)">
                <g id="Group-4">
                    <g id="Group-12">
                        <g id="badge" fill-rule="nonzero">
                            <path d="M83.5,20.4641016 L123.894537,43.7858984 C127.60735,45.9294919 129.894537,49.8910162 129.894537,54.1782032 L129.894537,100.821797 C129.894537,105.108984 127.60735,109.070508 123.894537,111.214102 L83.5,134.535898 C79.7871871,136.679492 75.2128129,136.679492 71.5,134.535898 L31.1054631,111.214102 C27.3926501,109.070508 25.1054631,105.108984 25.1054631,100.821797 L25.1054631,54.1782032 C25.1054631,49.8910162 27.3926501,45.9294919 31.1054631,43.7858984 L71.5,20.4641016 C75.2128129,18.3205081 79.7871871,18.3205081 83.5,20.4641016 Z" id="Polygon-Copy" fill="#FFFFFF" opacity="0"></path>
                            <g id="bg-copy-24">
                                <path d="M83.5,3.46410162 L138.616969,35.2858984 C142.329782,37.4294919 144.616969,41.3910162 144.616969,45.6782032 L144.616969,109.321797 C144.616969,113.608984 142.329782,117.570508 138.616969,119.714102 L83.5,151.535898 C79.7871871,153.679492 75.2128129,153.679492 71.5,151.535898 L16.3830312,119.714102 C12.6702183,117.570508 10.3830312,113.608984 10.3830312,109.321797 L10.3830312,45.6782032 C10.3830312,41.3910162 12.6702183,37.4294919 16.3830312,35.2858984 L71.5,3.46410162 C75.2128129,1.32050808 79.7871871,1.32050808 83.5,3.46410162 Z" id="Polygon" fill="url(#linearGradient-1)"></path>
                                <path d="M83.5,20.4641016 L123.894537,43.7858984 C127.60735,45.9294919 129.894537,49.8910162 129.894537,54.1782032 L129.894537,100.821797 C129.894537,105.108984 127.60735,109.070508 123.894537,111.214102 L83.5,134.535898 C79.7871871,136.679492 75.2128129,136.679492 71.5,134.535898 L31.1054631,111.214102 C27.3926501,109.070508 25.1054631,105.108984 25.1054631,100.821797 L25.1054631,54.1782032 C25.1054631,49.8910162 27.3926501,45.9294919 31.1054631,43.7858984 L71.5,20.4641016 C75.2128129,18.3205081 79.7871871,18.3205081 83.5,20.4641016 Z" id="Polygon-Copy" fill="#FFFFFF" opacity="0.200000003"></path>
                            </g>
                        </g>
                        <g id="medal" transform="translate(64.000000, 56.000000)">
                            <path d="M15.9237063,20.9217312 L24.8997861,20.9393504 L24.9412432,41.9268478 C22.9623291,39.92763 21.4643451,38.9270229 20.4472911,38.9250265 C19.4302372,38.9230301 17.9361946,39.9177641 15.9651634,41.9092285 L15.9237063,20.9217312 Z" id="Rectangle" fill="#FFFFFF" transform="translate(20.432475, 31.424289) rotate(-16.000000) translate(-20.432475, -31.424289) "></path>
                            <path d="M3.25521979,20.7986362 L12.2300019,20.779093 L12.1840178,41.7696439 C10.2137025,39.7783125 8.72009138,38.783754 7.70318448,38.7859684 C6.68627757,38.7881828 5.18829463,39.7892557 3.20923567,41.7891871 L3.25521979,20.7986362 Z" id="Rectangle" fill="#FFFFFF" transform="translate(7.719619, 31.284140) rotate(-342.000000) translate(-7.719619, -31.284140) "></path>
                            <ellipse id="Oval" fill="#5A5665" cx="14" cy="12.3231707" rx="12.4150943" ry="12.3231707"></ellipse>
                            <ellipse id="Oval" fill="#FFFFFF" cx="14" cy="12.3231707" rx="10.3018868" ry="10.2256098"></ellipse>
                            <path d="M21.6291472,10.0809505 C21.5558024,9.85460874 21.362709,9.68787542 21.1283964,9.6484487 L16.8392941,8.92727177 L14.8294068,5.0630271 C14.719602,4.85192808 14.5017771,4.7195122 14.2641499,4.7195122 C14.0266078,4.7195122 13.8086979,4.85192808 13.6988931,5.0630271 L11.6889208,8.92727177 L7.39990347,9.6484487 C7.16559085,9.68779027 6.97258252,9.85452358 6.89915267,10.0809505 C6.82572281,10.3073774 6.88402476,10.5558594 7.05051675,10.7257435 L10.0973457,13.835175 L9.45653428,18.1452056 C9.42151912,18.380659 9.5201055,18.6160271 9.71234893,18.7560218 C9.90442239,18.8958462 10.1584523,18.9170497 10.3710929,18.8110319 L14.2641499,16.8684781 L18.157122,18.8110319 C18.2471246,18.8559085 18.3443511,18.8780488 18.4412377,18.8780488 C18.5735645,18.8780488 18.7050413,18.8368338 18.815951,18.7561069 C19.0081944,18.6161123 19.1067808,18.3807441 19.0717656,18.1452908 L18.4310392,13.8352602 L21.4778681,10.7257435 C21.6442751,10.5558594 21.7025771,10.3073774 21.6291472,10.0809505 Z" id="Shape" fill="#FF5964" fill-rule="nonzero"></path>
                        </g>
                    </g>
                </g>
            </g>
        </g>
    </g>
</svg>
