<?xml version="1.0" encoding="UTF-8"?>
<svg width="135px" height="153px" viewBox="0 0 135 153" version="1.1" xmlns="http://www.w3.org/2000/svg" xmlns:xlink="http://www.w3.org/1999/xlink">
    <!-- Generator: Sketch 54.1 (76490) - https://sketchapp.com -->
    <title>coworking</title>
    <desc>Created with Sketch.</desc>
    <defs>
        <linearGradient x1="100%" y1="4.07956038%" x2="0%" y2="96.8553421%" id="linearGradient-1">
            <stop stop-color="#FF5964" offset="0%"></stop>
            <stop stop-color="#FF5964" offset="50.0270954%"></stop>
            <stop stop-color="#FAD866" offset="100%"></stop>
        </linearGradient>
    </defs>
    <g id="XHQ" stroke="none" stroke-width="1" fill="none" fill-rule="evenodd">
        <g id="XHQ--Icons---OPS---V1" transform="translate(-1041.000000, -192.000000)">
            <g id="coworking" transform="translate(1031.000000, 191.000000)">
                <g id="bg-copy-2" fill-rule="nonzero">
                    <path d="M83.5,3.46410162 L138.616969,35.2858984 C142.329782,37.4294919 144.616969,41.3910162 144.616969,45.6782032 L144.616969,109.321797 C144.616969,113.608984 142.329782,117.570508 138.616969,119.714102 L83.5,151.535898 C79.7871871,153.679492 75.2128129,153.679492 71.5,151.535898 L16.3830312,119.714102 C12.6702183,117.570508 10.3830312,113.608984 10.3830312,109.321797 L10.3830312,45.6782032 C10.3830312,41.3910162 12.6702183,37.4294919 16.3830312,35.2858984 L71.5,3.46410162 C75.2128129,1.32050808 79.7871871,1.32050808 83.5,3.46410162 Z" id="Polygon" fill="url(#linearGradient-1)"></path>
                    <path d="M83.5,20.4641016 L123.894537,43.7858984 C127.60735,45.9294919 129.894537,49.8910162 129.894537,54.1782032 L129.894537,100.821797 C129.894537,105.108984 127.60735,109.070508 123.894537,111.214102 L83.5,134.535898 C79.7871871,136.679492 75.2128129,136.679492 71.5,134.535898 L31.1054631,111.214102 C27.3926501,109.070508 25.1054631,105.108984 25.1054631,100.821797 L25.1054631,54.1782032 C25.1054631,49.8910162 27.3926501,45.9294919 31.1054631,43.7858984 L71.5,20.4641016 C75.2128129,18.3205081 79.7871871,18.3205081 83.5,20.4641016 Z" id="Polygon-Copy" fill="#FFFFFF" opacity="0.200000003"></path>
                </g>
                <ellipse id="Oval" fill="#FFFFFF" cx="59.7777778" cy="77.8306436" rx="5.74074074" ry="5.75460867"></ellipse>
                <path d="M65.5185185,77.8306436 C65.5185185,74.652461 62.9483013,72.0760349 59.7777778,72.0760349 C56.6072542,72.0760349 54.037037,74.652461 54.037037,77.8306436 C54.037037,79.7551403 58.7069604,76.0617825 61.8451019,76.0617825 C64.060945,76.0617825 65.5185185,79.0843295 65.5185185,77.8306436 Z" id="Oval" fill="#FF5964"></path>
                <ellipse id="Oval" fill="#FFFFFF" cx="94.2222222" cy="77.8306436" rx="5.74074074" ry="5.75460867"></ellipse>
                <path d="M99.461921,80.1853567 C99.7838713,79.4665962 99.962963,78.669585 99.962963,77.8306436 C99.962963,74.652461 97.3927458,72.0760349 94.2222222,72.0760349 C92.2925727,72.0760349 90.5852888,73.0303957 89.5444791,74.4939362 C89.5091087,74.5436725 89.4683667,74.6065516 89.4222531,74.6825734 C90.9383073,75.3537209 91.9523347,75.8767748 92.4643351,76.2517351 C93.8415933,77.2603615 94.4649311,78.3708853 95.3703704,78.8951278 C96.7807098,79.7117036 98.1053946,80.2224727 99.3444248,80.4274353 C99.3932832,80.3318474 99.4324486,80.2511545 99.461921,80.1853567 Z" id="Oval" fill="#5A5665"></path>
                <path d="M108,97.3963131 C108,93.2254487 106.364697,89.0567372 102.388552,87.0380175 C100.305083,85.9802238 96.8385031,85.8870957 94.2222222,85.8870957 C91.6095596,85.8870957 88.1107165,85.9829262 86.0291277,87.0380175 C82.0481875,89.0558296 80.4444444,93.2224262 80.4444444,97.3963131 C80.4444444,97.5080883 80.4597472,97.6692275 80.4903526,97.8797308 L107.916521,97.9892043 C107.972174,97.7300699 108,97.5324395 108,97.3963131 Z" id="Oval" fill="#E1E7E9"></path>
                <path d="M73.5555556,97.3963131 C73.5555556,93.2254487 71.9202522,89.0567372 67.9441076,87.0380175 C65.8606383,85.9802238 62.3940587,85.8870957 59.7777778,85.8870957 C57.1651151,85.8870957 53.666272,85.9829262 51.5846833,87.0380175 C47.6037431,89.0558296 46,93.2224262 46,97.3963131 C46,97.5080883 46.0153027,97.6692275 46.0459082,97.8797308 L73.4720763,97.9892043 C73.5277291,97.7300699 73.5555556,97.5324395 73.5555556,97.3963131 Z" id="Oval" fill="#FF5964"></path>
                <rect id="Rectangle" fill="#FFFFFF" x="51.7407407" y="90.4907827" width="16.0740741" height="11.5092173" rx="1.13749998"></rect>
                <path d="M69.3470753,47.3079847 L77.7640358,47.3079847 C82.2880872,47.3079847 85.9555556,50.9754531 85.9555556,55.4995045 L85.9555556,55.4995045 C85.9555556,60.023556 82.2880872,63.6910243 77.7640358,63.6910243 L71.1471205,63.6910243 C70.0560907,65.4613056 69.3942296,66.3464463 69.1615374,66.3464463 C68.9288452,66.3464463 68.659092,65.4613056 68.3522777,63.6910243 L68.3522777,63.6910243 C64.3776378,63.6910243 61.1555556,60.468942 61.1555556,56.4943022 L61.1555556,55.4995045 C61.1555556,50.9754531 64.8230239,47.3079847 69.3470753,47.3079847 Z" id="Rectangle" fill="#5A5665"></path>
                <path d="M85.0809128,51.3594437 L90.733902,51.3594437 C94.5627622,51.3594437 97.6666667,54.4633482 97.6666667,58.2922084 L97.6666667,58.2922084 C97.6666667,62.1210686 94.5627622,65.2249731 90.733902,65.2249731 L86.0118798,65.2249731 C85.1531989,66.723223 84.6322898,67.472348 84.4491524,67.472348 C84.266015,67.472348 84.0537092,66.723223 83.812235,65.2249731 L83.812235,65.2249731 C80.6840462,65.2249731 78.1481481,62.689075 78.1481481,59.5608862 L78.1481481,58.2922084 C78.1481481,54.4633482 81.2520526,51.3594437 85.0809128,51.3594437 Z" id="Rectangle" fill="#FFFFFF" transform="translate(87.907407, 59.415896) scale(-1, 1) translate(-87.907407, -59.415896) "></path>
                <rect id="Rectangle" fill="#5A5665" x="86.1851852" y="90.4907827" width="16.0740741" height="11.5092173" rx="1.13749998"></rect>
                <rect id="Rectangle" fill="#FF5964" x="58.6296296" y="95.0944696" width="2.2962963" height="2.30184347" rx="1.13749998"></rect>
                <rect id="Rectangle" fill="#FF5964" x="93.0740741" y="95.0944696" width="2.2962963" height="2.30184347" rx="1.13749998"></rect>
            </g>
        </g>
    </g>
</svg>
