<?xml version="1.0" encoding="UTF-8"?>
<svg width="135px" height="153px" viewBox="0 0 135 153" version="1.1" xmlns="http://www.w3.org/2000/svg" xmlns:xlink="http://www.w3.org/1999/xlink">
    <!-- Generator: Sketch 55.2 (78181) - https://sketchapp.com -->
    <title>fitness-challenge</title>
    <desc>Created with Sketch.</desc>
    <defs>
        <linearGradient x1="100%" y1="4.07956038%" x2="0%" y2="96.8553421%" id="linearGradient-1">
            <stop stop-color="#FF5964" offset="0%"></stop>
            <stop stop-color="#FF5964" offset="50.0270954%"></stop>
            <stop stop-color="#FAD866" offset="100%"></stop>
        </linearGradient>
    </defs>
    <g id="XHQ" stroke="none" stroke-width="1" fill="none" fill-rule="evenodd">
        <g id="XHQ--Icons---OPS---V1" transform="translate(-653.000000, -8928.000000)">
            <g id="fitness-challenge" transform="translate(643.000000, 8927.000000)">
                <path d="M84.5,20.4641016 L124.894537,43.7858984 C128.60735,45.9294919 130.894537,49.8910162 130.894537,54.1782032 L130.894537,100.821797 C130.894537,105.108984 128.60735,109.070508 124.894537,111.214102 L84.5,134.535898 C80.7871871,136.679492 76.2128129,136.679492 72.5,134.535898 L32.1054631,111.214102 C28.3926501,109.070508 26.1054631,105.108984 26.1054631,100.821797 L26.1054631,54.1782032 C26.1054631,49.8910162 28.3926501,45.9294919 32.1054631,43.7858984 L72.5,20.4641016 C76.2128129,18.3205081 80.7871871,18.3205081 84.5,20.4641016 Z" id="Polygon-Copy" fill="#FFFFFF" fill-rule="nonzero" opacity="0.200000003"></path>
                <g id="bg-copy-58">
                    <path d="M83.5,3.46410162 L138.616969,35.2858984 C142.329782,37.4294919 144.616969,41.3910162 144.616969,45.6782032 L144.616969,109.321797 C144.616969,113.608984 142.329782,117.570508 138.616969,119.714102 L83.5,151.535898 C79.7871871,153.679492 75.2128129,153.679492 71.5,151.535898 L16.3830312,119.714102 C12.6702183,117.570508 10.3830312,113.608984 10.3830312,109.321797 L10.3830312,45.6782032 C10.3830312,41.3910162 12.6702183,37.4294919 16.3830312,35.2858984 L71.5,3.46410162 C75.2128129,1.32050808 79.7871871,1.32050808 83.5,3.46410162 Z" id="Polygon" fill="url(#linearGradient-1)" fill-rule="nonzero"></path>
                    <path d="M83.5,20.4641016 L123.894537,43.7858984 C127.60735,45.9294919 129.894537,49.8910162 129.894537,54.1782032 L129.894537,100.821797 C129.894537,105.108984 127.60735,109.070508 123.894537,111.214102 L83.5,134.535898 C79.7871871,136.679492 75.2128129,136.679492 71.5,134.535898 L31.1054631,111.214102 C27.3926501,109.070508 25.1054631,105.108984 25.1054631,100.821797 L25.1054631,54.1782032 C25.1054631,49.8910162 27.3926501,45.9294919 31.1054631,43.7858984 L71.5,20.4641016 C75.2128129,18.3205081 79.7871871,18.3205081 83.5,20.4641016 Z" id="Polygon-Copy" fill="#FFFFFF" fill-rule="nonzero" opacity="0.200000003"></path>
                    <g id="Group-6" transform="translate(46.000000, 51.000000)">
                        <g id="user-run" transform="translate(17.461538, 6.549451)">
                            <ellipse id="Oval" fill="#FFFFFF" fill-rule="nonzero" cx="25.2503053" cy="8.00587784" rx="3.9453602" ry="4.00587784"></ellipse>
                            <path d="M10.208225,27.2925773 C9.40834025,26.6456456 8.81905476,25.7689592 8.51724359,24.776886 L0.422942613,35.2081919 C-0.251228313,36.0772168 -0.103910726,37.3366074 0.751985653,38.0211193 C1.60788203,38.7056313 2.84824666,38.5560541 3.52241758,37.6870291 L11.1353846,27.8750319 C10.8060546,27.7163162 10.4950967,27.5209681 10.208225,27.2925773 L10.208225,27.2925773 Z" id="Path" fill="#E1E7E9" fill-rule="nonzero"></path>
                            <path d="M32.2911951,18.7824904 C32.0518831,17.9316569 31.1786288,17.438835 30.340609,17.6816752 L25.9912439,18.9435267 C25.9912439,18.9435267 22.8617842,13.5251763 22.8586279,13.5211705 C22.4984369,12.8187932 21.9118714,12.2631043 21.1968422,11.9468605 C21.1534432,11.9244275 14.0162866,8.9288321 14.0162866,8.9288321 C13.3784097,8.66126931 12.6432905,8.84559644 12.2014209,9.38389982 L13.8876679,12.3410388 L16.5642002,13.4626846 L10.64616,20.9737056 C9.95614054,21.8297907 9.69670119,22.9626431 9.94393309,24.0400075 C10.191165,25.1173718 10.9170435,26.0171252 11.9086752,26.4753782 C11.9418162,26.4930041 16.8009219,28.701044 16.8009219,28.701044 L12.3821184,33.4696409 C11.8989276,33.990584 11.7261621,34.7336886 11.9289011,35.4190343 C12.13164,36.10438 12.6790825,36.6278466 13.3650122,36.7922492 C14.0509419,36.9566518 14.7711499,36.7370139 15.2543407,36.2160708 L21.566917,29.4060785 C22.0035339,28.9351689 22.1893328,28.2791782 22.0657966,27.6447097 C21.9422604,27.0102413 21.5245933,26.4753826 20.9443391,26.2085868 L17.0273855,24.4139535 L21.8935928,18.2368899 L23.8899451,21.637079 C24.2545656,22.2663728 24.9920609,22.56583 25.6835058,22.3653476 L31.2070101,20.7629964 C32.0449899,20.5200137 32.5303666,19.6333646 32.2911951,18.7824904 Z" id="Path" fill="#FFFFFF" fill-rule="nonzero"></path>
                            <path d="M14.9365424,1.32693937 C16.0256758,1.32693937 16.9103323,2.20655665 16.916554,3.29567229 L16.9677774,12.2624933 L16.0161056,12.2778262 C14.3594664,12.3045172 12.9948576,10.983183 12.9681667,9.32654375 C12.9679071,9.31043564 12.9677774,9.2943257 12.9677774,9.2782155 L12.9677774,3.29570441 C12.9677774,2.2083855 13.8492235,1.32693937 14.9365424,1.32693937 Z" id="Rectangle" fill="#FFFFFF" transform="translate(14.967777, 6.826939) rotate(25.000000) translate(-14.967777, -6.826939) "></path>
                        </g>
                        <rect id="Rectangle" fill="#5A5665" x="54" y="20" width="2" height="25"></rect>
                        <rect id="Rectangle" fill="#5A5665" x="32" y="21" width="2" height="25"></rect>
                        <path d="M33.5,23.4935489 L33.5,30.6736474 C37.1591139,31.4486769 40.7519816,31.8360074 44.2790408,31.8360074 C47.7930716,31.8360074 51.1988028,31.1403231 54.5,29.7477283 L54.5,22.6128956 C50.8178739,24.0240389 47.411025,24.7315511 44.2790408,24.7315511 C41.1394237,24.7315511 37.5469329,24.3184899 33.5,23.4935489 Z" id="Rectangle" stroke="#E1E7E9" fill="#FF5964"></path>
                        <g id="Group-5" transform="translate(14.243472, 18.629858) rotate(-63.000000) translate(-14.243472, -18.629858) translate(-2.628323, 11.679308)" fill="#FF5964" fill-rule="nonzero">
                            <path d="M17.0666501,9.16592899 C16.462962,9.16592899 15.9735073,8.67623903 15.9735073,8.07226075 L15.9735073,1.51025133 C15.9735073,0.906273048 16.462962,0.416583095 17.0666501,0.416583095 C17.6703381,0.416583095 18.1597928,0.906273048 18.1597928,1.51025133 L18.1597928,8.07226075 C18.1597928,8.67623903 17.6703381,9.16592899 17.0666501,9.16592899 Z M27.888118,13.650614 C27.6084265,13.650614 27.328735,13.5438064 27.1152333,13.330202 C26.6882299,12.9029934 26.6882299,12.2108982 27.1152333,11.7836895 L31.7530881,7.14360518 C32.1800915,6.71639649 32.8718541,6.71639649 33.2988575,7.14360518 C33.7258609,7.57081386 33.7258609,8.262909 33.2988575,8.69011768 L28.6610027,13.330202 C28.447501,13.5438064 28.1678095,13.650614 27.888118,13.650614 Z M6.2451821,13.650614 C5.9654906,13.650614 5.6857991,13.5438064 5.4722974,13.330202 L0.834442645,8.69011768 C0.407439236,8.262909 0.407439236,7.57081386 0.834442645,7.14360518 C1.26144605,6.71639649 1.95320863,6.71639649 2.38021204,7.14360518 L7.01806679,11.7836895 C7.4450702,12.2108982 7.4450702,12.9029934 7.01806679,13.330202 C6.80455416,13.5438064 6.52487359,13.650614 6.2451821,13.650614 Z" id="Combined-Shape"></path>
                        </g>
                    </g>
                </g>
            </g>
        </g>
    </g>
</svg>
