<?xml version="1.0" encoding="UTF-8"?>
<svg width="135px" height="153px" viewBox="0 0 135 153" version="1.1" xmlns="http://www.w3.org/2000/svg" xmlns:xlink="http://www.w3.org/1999/xlink">
    <!-- Generator: Sketch 54.1 (76490) - https://sketchapp.com -->
    <title>podium</title>
    <desc>Created with Sketch.</desc>
    <defs>
        <linearGradient x1="100%" y1="4.07956038%" x2="0%" y2="96.8553421%" id="linearGradient-1">
            <stop stop-color="#FF5964" offset="0%"></stop>
            <stop stop-color="#FF5964" offset="50.0270954%"></stop>
            <stop stop-color="#FAD866" offset="100%"></stop>
        </linearGradient>
    </defs>
    <g id="XHQ" stroke="none" stroke-width="1" fill="none" fill-rule="evenodd">
        <g id="XHQ--Icons---OPS---V1" transform="translate(-1041.000000, -6563.000000)" fill-rule="nonzero">
            <g id="podium" transform="translate(1031.000000, 6562.000000)">
                <path d="M84.5,20.4641016 L124.894537,43.7858984 C128.60735,45.9294919 130.894537,49.8910162 130.894537,54.1782032 L130.894537,100.821797 C130.894537,105.108984 128.60735,109.070508 124.894537,111.214102 L84.5,134.535898 C80.7871871,136.679492 76.2128129,136.679492 72.5,134.535898 L32.1054631,111.214102 C28.3926501,109.070508 26.1054631,105.108984 26.1054631,100.821797 L26.1054631,54.1782032 C26.1054631,49.8910162 28.3926501,45.9294919 32.1054631,43.7858984 L72.5,20.4641016 C76.2128129,18.3205081 80.7871871,18.3205081 84.5,20.4641016 Z" id="Polygon-Copy" fill="#FFFFFF" opacity="0.200000003"></path>
                <g id="bg-copy-58">
                    <path d="M83.5,3.46410162 L138.616969,35.2858984 C142.329782,37.4294919 144.616969,41.3910162 144.616969,45.6782032 L144.616969,109.321797 C144.616969,113.608984 142.329782,117.570508 138.616969,119.714102 L83.5,151.535898 C79.7871871,153.679492 75.2128129,153.679492 71.5,151.535898 L16.3830312,119.714102 C12.6702183,117.570508 10.3830312,113.608984 10.3830312,109.321797 L10.3830312,45.6782032 C10.3830312,41.3910162 12.6702183,37.4294919 16.3830312,35.2858984 L71.5,3.46410162 C75.2128129,1.32050808 79.7871871,1.32050808 83.5,3.46410162 Z" id="Polygon" fill="url(#linearGradient-1)"></path>
                    <path d="M83.5,20.4641016 L123.894537,43.7858984 C127.60735,45.9294919 129.894537,49.8910162 129.894537,54.1782032 L129.894537,100.821797 C129.894537,105.108984 127.60735,109.070508 123.894537,111.214102 L83.5,134.535898 C79.7871871,136.679492 75.2128129,136.679492 71.5,134.535898 L31.1054631,111.214102 C27.3926501,109.070508 25.1054631,105.108984 25.1054631,100.821797 L25.1054631,54.1782032 C25.1054631,49.8910162 27.3926501,45.9294919 31.1054631,43.7858984 L71.5,20.4641016 C75.2128129,18.3205081 79.7871871,18.3205081 83.5,20.4641016 Z" id="Polygon-Copy" fill="#FFFFFF" opacity="0.200000003"></path>
                </g>
                <g id="podium-trophy" transform="translate(58.000000, 50.000000)">
                    <path d="M26.8957109,39.8865979 L13.9115746,39.8865979 C13.3993646,39.8865979 12.9841363,40.1661727 12.9841363,40.5110457 L12.9841363,53 L27.8231492,53 L27.8231492,40.5110457 C27.8231492,40.1661727 27.407921,39.8865979 26.8957109,39.8865979 Z" id="Path" fill="#B2B6BC"></path>
                    <path d="M12.9841363,43.7113402 L0.927438308,43.7113402 C0.415228274,43.7113402 0,43.9885852 0,44.3305842 L0,52.380756 C0,52.722755 0.415228274,53 0.927438308,53 L12.9841363,53 L12.9841363,43.7113402 Z" id="Path" fill="#E1E7E9"></path>
                    <path d="M39.8798472,46.9896907 L27.8231492,46.9896907 L27.8231492,53 L39.8798472,53 C40.3920573,53 40.8072855,52.7309093 40.8072855,52.3989691 L40.8072855,47.5907216 C40.8072855,47.2587814 40.3920573,46.9896907 39.8798472,46.9896907 Z" id="Path" fill="#E1E7E9"></path>
                    <path d="M14.1740397,26.4095009 C14.8885287,28.8160144 16.9600556,30.5908926 19.4762045,30.9523801 L19.4762045,33.7693859 L18.5487662,33.7693859 C17.0121361,33.7693859 15.7664512,34.9978435 15.7664512,36.5132228 L25.0408343,36.5132228 C25.0408343,34.9978435 23.7951495,33.7693859 22.2585194,33.7693859 L21.3310811,33.7693859 L21.3310811,30.9523801 C23.8472299,30.5908926 25.9187569,28.8160144 26.6332459,26.4095009 C29.426488,26.075476 31.5285339,23.7396016 31.5329025,20.964814 L31.5329025,18.2209771 C31.5329025,17.7158507 31.1176742,17.3063649 30.6054642,17.3063649 L26.8957109,17.3063649 L26.8957109,16.3917526 L13.9115746,16.3917526 L13.9115746,17.3063649 L10.2018214,17.3063649 C9.68961135,17.3063649 9.27438308,17.7158507 9.27438308,18.2209771 L9.27438308,20.964814 C9.2787516,23.7396016 11.3807976,26.075476 14.1740397,26.4095009 Z M29.6780259,19.1355894 L29.6780259,20.964814 C29.6717055,22.6279556 28.5286378,24.0776115 26.8957109,24.4933882 L26.8957109,19.1355894 L29.6780259,19.1355894 Z M11.1292597,19.1355894 L13.9115746,19.1355894 L13.9115746,24.4933882 C12.2786478,24.0776115 11.13558,22.6279556 11.1292597,20.964814 L11.1292597,19.1355894 Z" id="Shape" fill="#FFFFFF"></path>
                    <g id="Group-5" transform="translate(6.094595, 0.000000)" fill="#5A5665">
                        <path d="M13.8609685,7.2218736 C13.3554424,7.2218736 12.9455749,6.81767436 12.9455749,6.3191394 L12.9455749,0.9027342 C12.9455749,0.404199238 13.3554424,0 13.8609685,0 C14.3664947,0 14.7763622,0.404199238 14.7763622,0.9027342 L14.7763622,6.3191394 C14.7763622,6.81767436 14.3664947,7.2218736 13.8609685,7.2218736 Z" id="Path"></path>
                        <path d="M22.9228256,10.9236164 C22.688613,10.9236164 22.4544004,10.8354554 22.2756148,10.6591424 C21.9180438,10.3065164 21.9180438,9.7352481 22.2756148,9.38262207 L26.1593372,5.55260974 C26.5169083,5.1999837 27.0961877,5.1999837 27.4537587,5.55260974 C27.8113298,5.90523577 27.8113298,6.47650403 27.4537587,6.82913006 L23.5700364,10.6591424 C23.3912509,10.8354554 23.1570382,10.9236164 22.9228256,10.9236164 Z" id="Path"></path>
                        <path d="M4.79911143,10.9236164 C4.56489881,10.9236164 4.33068619,10.8354554 4.15190065,10.6591424 L0.268178302,6.82913006 C-0.0893927673,6.47650403 -0.0893927673,5.90523577 0.268178302,5.55260974 C0.625749371,5.1999837 1.20502878,5.1999837 1.56259985,5.55260974 L5.4463222,9.38262207 C5.80389327,9.7352481 5.80389327,10.3065164 5.4463222,10.6591424 C5.26752751,10.8354554 5.03332405,10.9236164 4.79911143,10.9236164 Z" id="Path"></path>
                    </g>
                </g>
            </g>
        </g>
    </g>
</svg>