<?xml version="1.0" encoding="UTF-8"?>
<svg width="82px" height="62px" viewBox="0 0 82 62" version="1.1" xmlns="http://www.w3.org/2000/svg" xmlns:xlink="http://www.w3.org/1999/xlink">
    <!-- Generator: Sketch 54.1 (76490) - https://sketchapp.com -->
    <title>shoe</title>
    <desc>Created with Sketch.</desc>
    <g id="XHQ" stroke="none" stroke-width="1" fill="none" fill-rule="evenodd">
        <g id="XHQ--Unleash+---OPS---V1" transform="translate(-719.000000, -2624.000000)">
            <g id="shoe" transform="translate(719.000000, 2624.000000)">
                <path d="M75.9009204,59.9858799 C65.0772569,60.3802044 57.8055554,60.3064219 54.085816,59.7645325 C47.6267556,58.8235805 35.4877439,50.3014456 25.9922645,42.5639078 C19.6619449,37.4055493 11.6841076,31.1366237 2.05875248,23.7571312 C2.45506807,18.2841116 3.60616044,14.0113098 5.51202959,10.9387256 C7.14333016,8.30879263 10.7985512,4.87349166 16.4776926,0.632822711 L16.4776944,0.632825103 C17.9433384,-0.461585204 20.0186724,-0.160640845 21.1130828,1.30500314 C21.1890654,1.40675979 21.2591325,1.51280242 21.322937,1.62260572 C24.4313011,6.97189305 27.1033899,10.7071564 29.3392033,12.8283956 C31.9438443,15.2995619 38.4256227,17.6370555 48.7845387,19.8408763 L48.7845441,19.840851 C49.192975,19.9277431 49.5535032,20.1657242 49.7939286,20.5071356 C52.2497831,23.9945236 55.769455,28.7101264 60.3529445,34.6539441 C64.8189349,40.4453903 70.636882,43.2100108 79.1546057,49.5988746 C79.1546057,49.5988746 79.1546057,49.5988746 79.1546057,49.5988746 L79.1546057,49.5988746 C81.7050921,51.5119103 82.2218479,55.1303099 80.3088122,57.6807963 C79.2628851,59.0752411 77.6428768,59.9224149 75.9009204,59.9858773 Z" id="Path-6" fill="#E1E7E9"></path>
                <path d="M77.3648749,59.7753491 C72.5322157,59.4155852 68.8431932,59.1408018 66.2978072,58.9509987 C55.9742325,58.1811956 49.7231328,55.7811419 45.0530611,53.6498929 C40.8163481,51.7164129 25.4123629,39.0436853 23.969617,37.7877214 C16.3914031,31.1906046 9.08778159,26.2677422 2.05875248,23.0191344 C0.00454901581,25.8934009 -0.512406073,28.3627632 0.507887212,30.4272213 C1.13686217,31.6998871 14.8666619,37.9303301 23.969617,46.4458698 C26.2890677,48.6156459 33.1198538,54.233361 42.9821248,57.9514071 C45.2604478,58.8103279 54.7003387,61.7382665 61.3690558,61.7382665 C68.6346476,61.7382665 73.9665873,61.0839607 77.3648749,59.7753491 Z" id="Path-16" fill="#FF5964"></path>
                <path d="M23.595175,6.59205098 C21.9513767,8.43375614 19.9843448,9.356777 17.6940794,9.36111355 C15.403814,9.36545011 13.3810255,8.42751382 11.6257139,6.5473047" id="Path-17" stroke="#FFFFFF" stroke-width="1.656" stroke-linecap="round" transform="translate(17.610444, 7.954217) rotate(12.000000) translate(-17.610444, -7.954217) "></path>
                <path d="M79.6193336,57.2612159 C69.7768874,50.7246355 62.2036861,45.0077795 56.8997296,40.1106478 C50.91432,34.584332 47.1373957,27.8726937 45.5689566,19.9757329" id="Path-18" stroke="#FFFFFF" stroke-width="1.656" stroke-linecap="round"></path>
                <path d="M50.5893647,29.6058291 L56.5798557,28.5824788" id="Path-19" stroke="#5A5665" stroke-width="1.656" stroke-linecap="round"></path>
                <path d="M52.2628341,32.9216186 L58.2533251,31.8982683" id="Path-19" stroke="#5A5665" stroke-width="1.656" stroke-linecap="round"></path>
                <path d="M63.9771198,44.5268817 L69.9676108,43.5035314" id="Path-19" stroke="#5A5665" stroke-width="1.656" stroke-linecap="round"></path>
                <path d="M57.2832423,37.8738616 L62.8812477,36.8933937" id="Path-19" stroke="#5A5665" stroke-width="1.656" stroke-linecap="round"></path>
                <path d="M60.6301811,41.2110923 L66.6206721,40.1877419" id="Path-19" stroke="#5A5665" stroke-width="1.656" stroke-linecap="round"></path>
                <path d="M20.8219245,38.6184744 C22.6671521,35.4714791 22.6671521,32.6378224 20.8219245,30.1175043 C18.9766969,27.5971862 13.6859351,23.1863158 4.94963899,16.8848931" id="Path-20" stroke="#FFFFFF" stroke-width="1.656" stroke-linecap="round"></path>
            </g>
        </g>
    </g>
</svg>