<?xml version="1.0" encoding="UTF-8"?>
<svg width="83px" height="64px" viewBox="0 0 83 64" version="1.1" xmlns="http://www.w3.org/2000/svg" xmlns:xlink="http://www.w3.org/1999/xlink">
    <!-- Generator: Sketch 55.2 (78181) - https://sketchapp.com -->
    <title>Group 39</title>
    <desc>Created with Sketch.</desc>
    <g id="XHQ" stroke="none" stroke-width="1" fill="none" fill-rule="evenodd">
        <g id="Group-39" transform="translate(0.000000, -13.000000)">
            <g id="iot" transform="translate(22.000000, 0.000000)" fill="#B2B6BC" fill-rule="nonzero">
                <g transform="translate(20.787868, 20.505025) rotate(-45.000000) translate(-20.787868, -20.505025) translate(6.787868, 6.005025)" id="Path">
                    <path d="M2.99985494,17.9393979 C2.46943547,17.6849752 1.85086602,17.748918 1.37715572,18.1071398 C0.903445423,18.4653615 0.646562137,19.0634397 0.703271313,19.6760842 C0.759980488,20.2887287 1.12166665,20.8228641 1.65208612,21.0772868 C4.46974107,22.4300606 6.72784284,24.8163483 8.00794874,27.7939535 C8.38012486,28.6604575 9.34654,29.0440624 10.1664974,28.6507589 C10.9864549,28.2574555 11.3494534,27.2361798 10.9772774,26.3696757 C9.36993277,22.6328737 6.53592441,19.6379868 2.99985494,17.9393979 L2.99985494,17.9393979 Z" transform="translate(5.909482, 23.295285) rotate(-2.000000) translate(-5.909482, -23.295285) "></path>
                    <path d="M4.05988876,9.21597313 C3.20780588,8.94679139 2.30884466,9.44921427 2.03978052,10.3449969 C1.77071637,11.2407796 2.23091299,12.1991151 3.0739152,12.4985287 C9.12912083,14.5315485 13.8732378,19.5449753 15.7970484,25.9439176 C16.0102141,26.6602245 16.6379752,27.1480166 17.3485308,27.1494731 C17.5145923,27.1491413 17.6795739,27.1212458 17.8374433,27.0668065 C18.6950193,26.7793259 19.1699177,25.8118443 18.8983834,24.9054176 C16.6574817,17.4389549 11.1240387,11.5881831 4.05988876,9.21597313 Z" transform="translate(10.468905, 18.146434) rotate(-2.000000) translate(-10.468905, -18.146434) "></path>
                    <path d="M26.6175275,23.3944552 C24.0444985,12.1902184 15.7664174,3.44221442 5.16404661,0.723121906 C4.59332325,0.56069764 3.984117,0.737554711 3.57201115,1.18530155 C3.1599053,1.6330484 3.00950395,2.28149362 3.17896811,2.87988002 C3.34843226,3.47826641 3.81119573,3.93278746 4.38830543,4.06767746 C13.8111346,6.4851756 21.1682576,14.2599413 23.4558933,24.2176775 C23.6343669,24.9873672 24.2868193,25.5290081 25.0367104,25.5300142 C25.1679899,25.5302907 25.2988042,25.5135168 25.4262107,25.4800664 C25.8459529,25.3705339 26.2073074,25.0892324 26.4307377,24.698078 C26.6541681,24.3069236 26.7213612,23.8379767 26.6175275,23.3944552 Z" transform="translate(14.887869, 13.096922) rotate(-2.000000) translate(-14.887869, -13.096922) "></path>
                </g>
            </g>
            <rect id="Rectangle" fill="#E1E7E9" x="0" y="43" width="83" height="34" rx="7"></rect>
            <rect id="Rectangle" fill="#5A5665" x="68" y="57" width="6" height="6" rx="1"></rect>
            <rect id="Rectangle" fill="#5A5665" x="59" y="57" width="6" height="6" rx="1"></rect>
            <rect id="Rectangle" fill="#FF5964" x="50" y="57" width="6" height="6" rx="1"></rect>
        </g>
    </g>
</svg>